<?xml version="1.0" standalone="no"?>
<!DOCTYPE svg PUBLIC "-//W3C//DTD SVG 20010904//EN"
 "http://www.w3.org/TR/2001/REC-SVG-20010904/DTD/svg10.dtd">
<svg version="1.0" xmlns="http://www.w3.org/2000/svg"
 width="600.000000pt" height="600.000000pt" viewBox="0 0 600.000000 600.000000"
 preserveAspectRatio="xMidYMid meet">
<metadata>
Created by potrace 1.11, written by Peter Selinger 2001-2013
</metadata>
<g transform="translate(0.000000,600.000000) scale(0.100000,-0.100000)"
fill="#000000" stroke="none">
<path d="M2970 5766 c-30 -18 -131 -77 -225 -131 -93 -54 -188 -109 -210 -121
-22 -13 -76 -44 -120 -69 -44 -26 -93 -54 -110 -64 -16 -10 -52 -30 -80 -45
-27 -16 -54 -32 -60 -36 -5 -4 -41 -25 -80 -45 -38 -21 -72 -41 -75 -44 -3 -3
-18 -13 -35 -21 -16 -8 -32 -18 -35 -21 -3 -4 -28 -18 -57 -32 -28 -15 -55
-31 -58 -37 -4 -6 -6 -322 -6 -704 l0 -693 -181 -104 c-99 -57 -199 -115 -222
-128 -22 -13 -70 -40 -106 -61 -36 -21 -81 -47 -100 -58 -72 -40 -428 -246
-518 -299 l-94 -55 4 -54 c1 -30 1 -54 -2 -54 -3 0 -4 -44 -2 -97 1 -54 2
-127 1 -163 0 -36 -1 -72 0 -80 0 -8 0 -44 0 -80 -1 -36 -1 -72 0 -80 0 -8 0
-44 0 -80 -1 -36 0 -76 1 -90 1 -14 1 -31 1 -37 -2 -28 -2 -40 -2 -98 0 -107
2 -138 7 -146 2 -4 0 -9 -5 -11 -5 -1 -6 -23 -2 -48 4 -25 4 -58 1 -75 -3 -16
-3 -49 1 -73 3 -23 2 -42 -2 -42 -5 0 -6 -12 -3 -27 3 -16 7 -37 8 -48 3 -18
17 -29 96 -73 73 -40 110 -62 149 -86 22 -15 45 -26 51 -26 5 0 10 -5 10 -11
0 -5 4 -8 9 -4 5 3 12 1 16 -5 3 -6 25 -20 48 -31 23 -12 45 -27 49 -33 4 -6
8 -7 8 -3 0 5 12 0 27 -11 16 -10 118 -70 228 -133 110 -62 202 -116 205 -119
4 -4 28 -17 115 -64 11 -6 22 -13 25 -16 3 -3 16 -11 30 -18 14 -7 39 -20 55
-31 38 -23 94 -55 165 -94 30 -17 57 -34 58 -39 2 -4 7 -8 12 -8 8 0 495 -278
572 -327 21 -12 42 -23 48 -23 5 0 10 -4 10 -8 0 -4 12 -13 28 -19 15 -7 50
-26 77 -42 28 -16 68 -40 90 -53 22 -12 49 -28 60 -35 11 -7 30 -17 42 -22 11
-5 24 -15 28 -20 3 -6 15 -11 26 -11 10 0 19 -4 19 -8 0 -5 15 -15 33 -24 36
-17 38 -16 162 57 90 54 130 76 148 82 9 3 17 9 17 14 0 5 4 9 10 9 5 0 44 21
87 46 43 26 92 54 108 64 17 9 72 41 123 71 52 30 110 63 130 74 20 12 53 30
72 40 19 11 42 25 50 31 8 7 39 25 68 40 83 46 209 118 297 171 11 7 27 15 35
20 8 4 55 31 104 60 49 29 90 53 92 53 2 0 38 20 80 45 41 25 80 45 85 45 5 0
9 4 9 9 0 5 12 14 28 20 15 6 41 19 57 29 17 9 64 37 105 61 41 24 101 59 132
78 32 19 59 33 62 31 2 -2 12 4 22 13 11 9 39 28 64 41 25 14 62 35 83 47 20
11 52 30 71 40 19 11 52 30 73 43 21 13 48 28 58 34 20 11 20 28 20 1064 l0
1052 -118 69 c-65 38 -137 80 -160 93 -23 13 -58 33 -77 45 -19 11 -48 28 -65
36 -16 9 -43 24 -60 35 -16 10 -41 25 -55 33 -127 71 -342 197 -357 209 -7 6
-13 7 -13 3 0 -5 -8 -1 -17 7 -19 15 -61 40 -153 91 -30 17 -71 40 -90 52
l-35 22 0 349 -1 349 -39 26 c-22 14 -63 39 -92 55 -49 27 -755 435 -798 461
-11 7 -27 16 -35 20 -8 4 -49 27 -90 51 -98 59 -158 92 -162 91 -2 0 -28 -15
-58 -33z"/>
</g>
</svg>
